<?xml version="1.0" encoding="UTF-8" standalone="no"?>
<svg width="36px" height="36px" viewBox="0 0 36 36" version="1.1" xmlns="http://www.w3.org/2000/svg" xmlns:xlink="http://www.w3.org/1999/xlink" xmlns:sketch="http://www.bohemiancoding.com/sketch/ns">
    <!-- Generator: Sketch 3.3.3 (12072) - http://www.bohemiancoding.com/sketch -->
    <title>Desktop HD 2</title>
    <desc>Created with Sketch.</desc>
    <defs></defs>
    <g id="Forum-Top" stroke="none" stroke-width="1" fill="none" fill-rule="evenodd" sketch:type="MSPage">
        <g id="Desktop-HD-2" sketch:type="MSArtboardGroup" transform="translate(-39.000000, -385.000000)" fill="#FC4C02">
            <g id="Cycling-Icon-Copy-9" sketch:type="MSLayerGroup" transform="translate(39.000000, 385.000000)">
                <path d="M18,36 C27.9411255,36 36,27.9411255 36,18 C36,8.0588745 27.9411255,0 18,0 C8.0588745,0 0,8.0588745 0,18 C0,27.9411255 8.0588745,36 18,36 Z M21.1666667,12.85 C21.9504167,12.85 22.5916667,12.20875 22.5916667,11.425 C22.5916667,10.64125 21.9504167,10 21.1666667,10 C20.375,10 19.7416667,10.64125 19.7416667,11.425 C19.7416667,12.20875 20.375,12.85 21.1666667,12.85 Z M23.5416667,18.55 C21.3566667,18.55 19.5833333,20.3233333 19.5833333,22.5083333 C19.5833333,24.6933333 21.3566667,26.4666667 23.5416667,26.4666667 C25.7266667,26.4666667 27.5,24.6933333 27.5,22.5083333 C27.5,20.3233333 25.7266667,18.55 23.5416667,18.55 L23.5416667,18.55 Z M23.5416667,25.2791667 C22.01375,25.2791667 20.7708333,24.03625 20.7708333,22.5083333 C20.7708333,20.9804167 22.01375,19.7375 23.5416667,19.7375 C25.0695833,19.7375 26.3125,20.9804167 26.3125,22.5083333 C26.3125,24.03625 25.0695833,25.2791667 23.5416667,25.2791667 L23.5416667,25.2791667 Z M20.2166667,16.9666667 L23.5416667,16.9666667 L23.5416667,15.5416667 L21.0083333,15.5416667 L19.4804167,12.9529167 C19.2429167,12.5570833 18.8154167,12.2958333 18.3245833,12.2958333 C17.9525,12.2958333 17.62,12.44625 17.3745833,12.6916667 L14.4454167,15.6208333 C14.1920833,15.8583333 14.0416667,16.19875 14.0416667,16.5708333 C14.0416667,17.0695833 14.3029167,17.4891667 14.7145833,17.7345833 L17.3666667,19.3416667 L17.3666667,23.3 L18.7916667,23.3 L18.7916667,18.17 L17.0104167,16.8479167 L18.8470833,15.0033333 L20.2166667,16.9666667 L20.2166667,16.9666667 Z M12.4583333,18.55 C10.2733333,18.55 8.5,20.3233333 8.5,22.5083333 C8.5,24.6933333 10.2733333,26.4666667 12.4583333,26.4666667 C14.6433333,26.4666667 16.4166667,24.6933333 16.4166667,22.5083333 C16.4166667,20.3233333 14.6433333,18.55 12.4583333,18.55 L12.4583333,18.55 Z M12.4583333,25.2791667 C10.9304167,25.2791667 9.6875,24.03625 9.6875,22.5083333 C9.6875,20.9804167 10.9304167,19.7375 12.4583333,19.7375 C13.98625,19.7375 15.2291667,20.9804167 15.2291667,22.5083333 C15.2291667,24.03625 13.98625,25.2791667 12.4583333,25.2791667 L12.4583333,25.2791667 Z" id="Oval-1" sketch:type="MSShapeGroup"></path>
            </g>
        </g>
    </g>
</svg>