<?xml version="1.0" encoding="UTF-8" standalone="no"?>
<svg width="36px" height="36px" viewBox="0 0 36 36" version="1.1" xmlns="http://www.w3.org/2000/svg" xmlns:xlink="http://www.w3.org/1999/xlink" xmlns:sketch="http://www.bohemiancoding.com/sketch/ns">
    <!-- Generator: Sketch 3.3.3 (12072) - http://www.bohemiancoding.com/sketch -->
    <title>Desktop HD 2</title>
    <desc>Created with Sketch.</desc>
    <defs></defs>
    <g id="Forum-Top" stroke="none" stroke-width="1" fill="none" fill-rule="evenodd" sketch:type="MSPage">
        <g id="Desktop-HD-2" sketch:type="MSArtboardGroup" transform="translate(-39.000000, -470.000000)" fill="#FC4C02">
            <path d="M57,506 C66.9411255,506 75,497.941125 75,488 C75,478.058875 66.9411255,470 57,470 C47.0588745,470 39,478.058875 39,488 C39,497.941125 47.0588745,506 57,506 Z M47.4555667,481.619516 L47.1818182,481.76504 L47.1818182,482.075065 L47.1818182,492.960728 L47.1818182,493.260597 L47.4423803,493.409019 L56.8175731,498.749322 L57.074127,498.89546 L57.3300896,498.748289 L66.5594249,493.441677 L66.8181818,493.292898 L66.8181818,492.994419 L66.8181818,482.538081 L66.8181818,482.24093 L66.5611505,482.09182 L57.2484321,476.689295 L57.0004846,476.545455 L56.7473764,476.680006 L47.4555667,481.619516 Z M48.2142334,482.395813 L56.9638672,477.716797 L65.8608398,482.875549 L65.8608398,490.067505 L59.1341553,485.77063 L48.2142334,492.128784 L48.2142334,491.199951 L55.5772095,487.032532 L54.4393311,485.523926 L48.2142334,488.951538 L48.2142334,482.395813 Z" id="Oval-1-Copy-4" sketch:type="MSShapeGroup"></path>
        </g>
    </g>
</svg>