<?xml version="1.0" encoding="UTF-8" standalone="no"?>
<svg width="36px" height="36px" viewBox="0 0 36 36" version="1.1" xmlns="http://www.w3.org/2000/svg" xmlns:xlink="http://www.w3.org/1999/xlink" xmlns:sketch="http://www.bohemiancoding.com/sketch/ns">
    <!-- Generator: Sketch 3.3.3 (12072) - http://www.bohemiancoding.com/sketch -->
    <title>Desktop HD 2</title>
    <desc>Created with Sketch.</desc>
    <defs></defs>
    <g id="Forum-Top" stroke="none" stroke-width="1" fill="none" fill-rule="evenodd" sketch:type="MSPage">
        <g id="Desktop-HD-2" sketch:type="MSArtboardGroup" transform="translate(-39.000000, -426.000000)" fill="#FC4C02">
            <g id="Running-Icon-Copy-7" sketch:type="MSLayerGroup" transform="translate(39.000000, 426.000000)">
                <path d="M17.7317552,36 C27.5247331,36 35.4635103,27.9411255 35.4635103,18 C35.4635103,8.0588745 27.5247331,0 17.7317552,0 C7.9387772,0 0,8.0588745 0,18 C0,27.9411255 7.9387772,36 17.7317552,36 Z M27.7800049,21.1387874 C27.4026945,20.0216506 25.0287832,19.7663051 24.132671,19.1758185 C22.7177569,18.2501908 21.428613,17.0692176 20.2809606,15.8244081 C19.4948972,14.9785759 18.6302275,13.2230752 17.5611814,12.7921796 C16.4292502,12.3453249 15.8632845,13.4624617 14.9671723,13.8933573 C13.9767325,14.3721302 12.7504737,14.340212 12.121623,13.350748 C11.6971488,12.6804659 11.8386402,11.2760653 10.7224302,11.2601062 C9.73199043,11.2441471 9.26035242,13.1432797 9.07169722,13.8773982 C8.86732075,14.7072713 8.99309088,15.4573488 8.88304201,16.2712628 C8.80443568,16.8457903 8.39568274,17.3883996 8.3642402,18.0267635 C8.19130627,21.0749511 12.5618185,21.888865 14.7313533,21.9846196 C16.3506438,22.048456 17.7655578,22.5112698 19.1804719,23.2932656 C20.5953859,24.0593022 21.8216447,24.7934207 23.4723777,24.8253389 C25.075947,24.8572571 29.1634764,23.6284066 27.7800049,21.1387874 Z" id="Oval-1" sketch:type="MSShapeGroup"></path>
            </g>
        </g>
    </g>
</svg>